<mxfile host="app.diagrams.net" modified="2022-10-30T19:53:55.674Z" agent="5.0 (Windows NT 10.0; Win64; x64) AppleWebKit/537.36 (KHTML, like Gecko) Chrome/106.0.0.0 Safari/537.36" etag="AOmel4SBuqhxzPyldd9U" compressed="false" version="20.5.1" type="device">
  <diagram id="ty8MPdrKEVkn_e9GhsXW" name="Page-1">
    <mxGraphModel dx="3792" dy="2203" grid="1" gridSize="10" guides="1" tooltips="1" connect="1" arrows="1" fold="1" page="1" pageScale="1" pageWidth="850" pageHeight="1100" background="none" math="0" shadow="1">
      <root>
        <mxCell id="0" />
        <mxCell id="1" parent="0" />
        <mxCell id="bRwFNGQKk4nsP9bw9-Bx-5" value="" style="edgeStyle=orthogonalEdgeStyle;rounded=0;orthogonalLoop=1;jettySize=auto;html=1;" parent="1" source="bRwFNGQKk4nsP9bw9-Bx-3" target="bRwFNGQKk4nsP9bw9-Bx-4" edge="1">
          <mxGeometry relative="1" as="geometry" />
        </mxCell>
        <mxCell id="bRwFNGQKk4nsP9bw9-Bx-3" value="Start" style="strokeWidth=2;html=1;shape=mxgraph.flowchart.terminator;whiteSpace=wrap;rounded=0;" parent="1" vertex="1">
          <mxGeometry x="295" width="100" height="60" as="geometry" />
        </mxCell>
        <mxCell id="bRwFNGQKk4nsP9bw9-Bx-7" value="" style="edgeStyle=orthogonalEdgeStyle;rounded=0;orthogonalLoop=1;jettySize=auto;html=1;" parent="1" source="bRwFNGQKk4nsP9bw9-Bx-4" target="bRwFNGQKk4nsP9bw9-Bx-6" edge="1">
          <mxGeometry relative="1" as="geometry" />
        </mxCell>
        <mxCell id="bRwFNGQKk4nsP9bw9-Bx-4" value="Оголошення змінних" style="rounded=0;whiteSpace=wrap;html=1;" parent="1" vertex="1">
          <mxGeometry x="285" y="140" width="120" height="60" as="geometry" />
        </mxCell>
        <mxCell id="bRwFNGQKk4nsP9bw9-Bx-55" style="edgeStyle=orthogonalEdgeStyle;rounded=0;orthogonalLoop=1;jettySize=auto;html=1;exitX=0.5;exitY=1;exitDx=0;exitDy=0;entryX=0.5;entryY=0;entryDx=0;entryDy=0;entryPerimeter=0;" parent="1" source="bRwFNGQKk4nsP9bw9-Bx-6" target="bRwFNGQKk4nsP9bw9-Bx-54" edge="1">
          <mxGeometry relative="1" as="geometry" />
        </mxCell>
        <mxCell id="bRwFNGQKk4nsP9bw9-Bx-6" value="Вивід запрошення&lt;br&gt;на введення варіанту" style="shape=parallelogram;html=1;strokeWidth=2;perimeter=parallelogramPerimeter;whiteSpace=wrap;rounded=0;arcSize=12;size=0.23;" parent="1" vertex="1">
          <mxGeometry x="255" y="260" width="180" height="60" as="geometry" />
        </mxCell>
        <mxCell id="bRwFNGQKk4nsP9bw9-Bx-11" value="" style="edgeStyle=orthogonalEdgeStyle;rounded=0;orthogonalLoop=1;jettySize=auto;html=1;" parent="1" source="bRwFNGQKk4nsP9bw9-Bx-9" target="bRwFNGQKk4nsP9bw9-Bx-10" edge="1">
          <mxGeometry relative="1" as="geometry" />
        </mxCell>
        <mxCell id="bRwFNGQKk4nsP9bw9-Bx-9" value="Введення&lt;br&gt;left_boundary_a, right_boundary_b, intervals" style="rounded=0;whiteSpace=wrap;html=1;" parent="1" vertex="1">
          <mxGeometry x="5" y="550" width="250" height="30" as="geometry" />
        </mxCell>
        <mxCell id="bRwFNGQKk4nsP9bw9-Bx-13" value="" style="edgeStyle=orthogonalEdgeStyle;rounded=0;orthogonalLoop=1;jettySize=auto;html=1;" parent="1" source="bRwFNGQKk4nsP9bw9-Bx-10" target="bRwFNGQKk4nsP9bw9-Bx-12" edge="1">
          <mxGeometry relative="1" as="geometry" />
        </mxCell>
        <mxCell id="bRwFNGQKk4nsP9bw9-Bx-10" value="Обчислення h=(right_boundary_b-left_boundary_a)/Intervals" style="rounded=0;whiteSpace=wrap;html=1;" parent="1" vertex="1">
          <mxGeometry x="-35" y="690" width="330" height="20" as="geometry" />
        </mxCell>
        <mxCell id="bRwFNGQKk4nsP9bw9-Bx-67" value="" style="edgeStyle=orthogonalEdgeStyle;rounded=0;orthogonalLoop=1;jettySize=auto;html=1;" parent="1" source="bRwFNGQKk4nsP9bw9-Bx-12" target="bRwFNGQKk4nsP9bw9-Bx-63" edge="1">
          <mxGeometry relative="1" as="geometry" />
        </mxCell>
        <mxCell id="bRwFNGQKk4nsP9bw9-Bx-12" value="S=0" style="rounded=0;whiteSpace=wrap;html=1;" parent="1" vertex="1">
          <mxGeometry x="115" y="760" width="30" height="20" as="geometry" />
        </mxCell>
        <mxCell id="bRwFNGQKk4nsP9bw9-Bx-14" value="" style="edgeStyle=orthogonalEdgeStyle;rounded=0;orthogonalLoop=1;jettySize=auto;html=1;" parent="1" source="bRwFNGQKk4nsP9bw9-Bx-15" target="bRwFNGQKk4nsP9bw9-Bx-17" edge="1">
          <mxGeometry relative="1" as="geometry" />
        </mxCell>
        <mxCell id="bRwFNGQKk4nsP9bw9-Bx-15" value="Введення&lt;br&gt;left_boundary_a, right_boundary_b, intervals" style="rounded=0;whiteSpace=wrap;html=1;" parent="1" vertex="1">
          <mxGeometry x="330" y="570" width="250" height="30" as="geometry" />
        </mxCell>
        <mxCell id="bRwFNGQKk4nsP9bw9-Bx-16" value="" style="edgeStyle=orthogonalEdgeStyle;rounded=0;orthogonalLoop=1;jettySize=auto;html=1;" parent="1" source="bRwFNGQKk4nsP9bw9-Bx-17" target="bRwFNGQKk4nsP9bw9-Bx-18" edge="1">
          <mxGeometry relative="1" as="geometry" />
        </mxCell>
        <mxCell id="bRwFNGQKk4nsP9bw9-Bx-17" value="Обчислення h=(right_boundary_b-left_boundary_a)/Intervals" style="rounded=0;whiteSpace=wrap;html=1;" parent="1" vertex="1">
          <mxGeometry x="290" y="710" width="330" height="20" as="geometry" />
        </mxCell>
        <mxCell id="bRwFNGQKk4nsP9bw9-Bx-70" value="" style="edgeStyle=orthogonalEdgeStyle;rounded=0;orthogonalLoop=1;jettySize=auto;html=1;" parent="1" source="bRwFNGQKk4nsP9bw9-Bx-18" target="bRwFNGQKk4nsP9bw9-Bx-66" edge="1">
          <mxGeometry relative="1" as="geometry" />
        </mxCell>
        <mxCell id="bRwFNGQKk4nsP9bw9-Bx-18" value="S=0" style="rounded=0;whiteSpace=wrap;html=1;" parent="1" vertex="1">
          <mxGeometry x="440" y="770" width="30" height="20" as="geometry" />
        </mxCell>
        <mxCell id="bRwFNGQKk4nsP9bw9-Bx-19" value="" style="edgeStyle=orthogonalEdgeStyle;rounded=0;orthogonalLoop=1;jettySize=auto;html=1;" parent="1" source="bRwFNGQKk4nsP9bw9-Bx-20" target="bRwFNGQKk4nsP9bw9-Bx-22" edge="1">
          <mxGeometry relative="1" as="geometry" />
        </mxCell>
        <mxCell id="bRwFNGQKk4nsP9bw9-Bx-20" value="Введення&lt;br&gt;left_boundary_a, right_boundary_b, intervals" style="rounded=0;whiteSpace=wrap;html=1;" parent="1" vertex="1">
          <mxGeometry x="560" y="650" width="250" height="30" as="geometry" />
        </mxCell>
        <mxCell id="bRwFNGQKk4nsP9bw9-Bx-21" value="" style="edgeStyle=orthogonalEdgeStyle;rounded=0;orthogonalLoop=1;jettySize=auto;html=1;" parent="1" source="bRwFNGQKk4nsP9bw9-Bx-22" target="bRwFNGQKk4nsP9bw9-Bx-23" edge="1">
          <mxGeometry relative="1" as="geometry" />
        </mxCell>
        <mxCell id="bRwFNGQKk4nsP9bw9-Bx-22" value="Обчислення h=(right_boundary_b-left_boundary_a)/Intervals" style="rounded=0;whiteSpace=wrap;html=1;" parent="1" vertex="1">
          <mxGeometry x="520" y="790" width="330" height="20" as="geometry" />
        </mxCell>
        <mxCell id="bRwFNGQKk4nsP9bw9-Bx-68" value="" style="edgeStyle=orthogonalEdgeStyle;rounded=0;orthogonalLoop=1;jettySize=auto;html=1;" parent="1" source="bRwFNGQKk4nsP9bw9-Bx-23" target="bRwFNGQKk4nsP9bw9-Bx-65" edge="1">
          <mxGeometry relative="1" as="geometry" />
        </mxCell>
        <mxCell id="bRwFNGQKk4nsP9bw9-Bx-23" value="S=0" style="rounded=0;whiteSpace=wrap;html=1;" parent="1" vertex="1">
          <mxGeometry x="670" y="850" width="30" height="20" as="geometry" />
        </mxCell>
        <mxCell id="bRwFNGQKk4nsP9bw9-Bx-24" value="" style="edgeStyle=orthogonalEdgeStyle;rounded=0;orthogonalLoop=1;jettySize=auto;html=1;" parent="1" source="bRwFNGQKk4nsP9bw9-Bx-25" target="bRwFNGQKk4nsP9bw9-Bx-27" edge="1">
          <mxGeometry relative="1" as="geometry" />
        </mxCell>
        <mxCell id="bRwFNGQKk4nsP9bw9-Bx-25" value="Введення&lt;br&gt;left_boundary_a, right_boundary_b, intervals" style="rounded=0;whiteSpace=wrap;html=1;" parent="1" vertex="1">
          <mxGeometry x="750" y="730" width="250" height="30" as="geometry" />
        </mxCell>
        <mxCell id="bRwFNGQKk4nsP9bw9-Bx-26" value="" style="edgeStyle=orthogonalEdgeStyle;rounded=0;orthogonalLoop=1;jettySize=auto;html=1;" parent="1" source="bRwFNGQKk4nsP9bw9-Bx-27" target="bRwFNGQKk4nsP9bw9-Bx-28" edge="1">
          <mxGeometry relative="1" as="geometry" />
        </mxCell>
        <mxCell id="bRwFNGQKk4nsP9bw9-Bx-27" value="Обчислення h=(right_boundary_b-left_boundary_a)/Intervals" style="rounded=0;whiteSpace=wrap;html=1;" parent="1" vertex="1">
          <mxGeometry x="710" y="870" width="330" height="20" as="geometry" />
        </mxCell>
        <mxCell id="bRwFNGQKk4nsP9bw9-Bx-69" value="" style="edgeStyle=orthogonalEdgeStyle;rounded=0;orthogonalLoop=1;jettySize=auto;html=1;" parent="1" source="bRwFNGQKk4nsP9bw9-Bx-28" target="bRwFNGQKk4nsP9bw9-Bx-64" edge="1">
          <mxGeometry relative="1" as="geometry" />
        </mxCell>
        <mxCell id="bRwFNGQKk4nsP9bw9-Bx-28" value="S=0" style="rounded=0;whiteSpace=wrap;html=1;" parent="1" vertex="1">
          <mxGeometry x="860" y="920" width="30" height="20" as="geometry" />
        </mxCell>
        <mxCell id="bRwFNGQKk4nsP9bw9-Bx-36" value="" style="edgeStyle=orthogonalEdgeStyle;rounded=0;orthogonalLoop=1;jettySize=auto;html=1;" parent="1" target="bRwFNGQKk4nsP9bw9-Bx-15" edge="1">
          <mxGeometry relative="1" as="geometry">
            <mxPoint x="455" y="520" as="sourcePoint" />
          </mxGeometry>
        </mxCell>
        <mxCell id="bRwFNGQKk4nsP9bw9-Bx-38" style="edgeStyle=orthogonalEdgeStyle;rounded=0;orthogonalLoop=1;jettySize=auto;html=1;entryX=0.5;entryY=0;entryDx=0;entryDy=0;" parent="1" edge="1">
          <mxGeometry relative="1" as="geometry">
            <mxPoint x="481.9500000000003" y="505" as="sourcePoint" />
            <mxPoint x="685" y="560" as="targetPoint" />
          </mxGeometry>
        </mxCell>
        <mxCell id="bRwFNGQKk4nsP9bw9-Bx-37" value="" style="edgeStyle=orthogonalEdgeStyle;rounded=0;orthogonalLoop=1;jettySize=auto;html=1;" parent="1" target="bRwFNGQKk4nsP9bw9-Bx-20" edge="1">
          <mxGeometry relative="1" as="geometry">
            <mxPoint x="685" y="590" as="sourcePoint" />
          </mxGeometry>
        </mxCell>
        <mxCell id="bRwFNGQKk4nsP9bw9-Bx-40" style="edgeStyle=orthogonalEdgeStyle;rounded=0;orthogonalLoop=1;jettySize=auto;html=1;entryX=0.5;entryY=0;entryDx=0;entryDy=0;" parent="1" edge="1">
          <mxGeometry relative="1" as="geometry">
            <mxPoint x="711.9500000000003" y="575" as="sourcePoint" />
            <mxPoint x="875" y="630" as="targetPoint" />
          </mxGeometry>
        </mxCell>
        <mxCell id="bRwFNGQKk4nsP9bw9-Bx-39" style="edgeStyle=orthogonalEdgeStyle;rounded=0;orthogonalLoop=1;jettySize=auto;html=1;entryX=0.5;entryY=0;entryDx=0;entryDy=0;" parent="1" target="bRwFNGQKk4nsP9bw9-Bx-25" edge="1">
          <mxGeometry relative="1" as="geometry">
            <mxPoint x="875" y="660" as="sourcePoint" />
          </mxGeometry>
        </mxCell>
        <mxCell id="bRwFNGQKk4nsP9bw9-Bx-52" style="edgeStyle=orthogonalEdgeStyle;rounded=0;orthogonalLoop=1;jettySize=auto;html=1;entryX=1;entryY=0.5;entryDx=0;entryDy=0;" parent="1" target="bRwFNGQKk4nsP9bw9-Bx-6" edge="1">
          <mxGeometry relative="1" as="geometry">
            <mxPoint x="901.9500000000003" y="645" as="sourcePoint" />
            <Array as="points">
              <mxPoint x="920" y="645" />
              <mxPoint x="920" y="290" />
            </Array>
          </mxGeometry>
        </mxCell>
        <mxCell id="bRwFNGQKk4nsP9bw9-Bx-41" value="0" style="edgeLabel;html=1;align=center;verticalAlign=middle;resizable=0;points=[];rounded=0;" parent="1" vertex="1" connectable="0">
          <mxGeometry x="420.0000000000003" y="450" as="geometry">
            <mxPoint x="187" y="38" as="offset" />
          </mxGeometry>
        </mxCell>
        <mxCell id="bRwFNGQKk4nsP9bw9-Bx-42" value="0" style="edgeLabel;html=1;align=center;verticalAlign=middle;resizable=0;points=[];rounded=0;" parent="1" vertex="1" connectable="0">
          <mxGeometry x="255.00000000000028" y="420" as="geometry">
            <mxPoint x="558" y="147" as="offset" />
          </mxGeometry>
        </mxCell>
        <mxCell id="bRwFNGQKk4nsP9bw9-Bx-43" value="1" style="edgeLabel;html=1;align=center;verticalAlign=middle;resizable=0;points=[];rounded=0;" parent="1" vertex="1" connectable="0">
          <mxGeometry x="192.75588235294072" y="460" as="geometry">
            <mxPoint x="247" y="79" as="offset" />
          </mxGeometry>
        </mxCell>
        <mxCell id="bRwFNGQKk4nsP9bw9-Bx-44" value="1" style="edgeLabel;html=1;align=center;verticalAlign=middle;resizable=0;points=[];rounded=0;" parent="1" vertex="1" connectable="0">
          <mxGeometry x="192.75588235294072" y="460" as="geometry">
            <mxPoint x="475" y="151" as="offset" />
          </mxGeometry>
        </mxCell>
        <mxCell id="bRwFNGQKk4nsP9bw9-Bx-45" value="1" style="edgeLabel;html=1;align=center;verticalAlign=middle;resizable=0;points=[];rounded=0;" parent="1" vertex="1" connectable="0">
          <mxGeometry x="202.75588235294072" y="470" as="geometry">
            <mxPoint x="1790" y="595" as="offset" />
          </mxGeometry>
        </mxCell>
        <mxCell id="bRwFNGQKk4nsP9bw9-Bx-46" value="1" style="edgeLabel;html=1;align=center;verticalAlign=middle;resizable=0;points=[];rounded=0;" parent="1" vertex="1" connectable="0">
          <mxGeometry x="192.75588235294072" y="460" as="geometry">
            <mxPoint x="664" y="228" as="offset" />
          </mxGeometry>
        </mxCell>
        <mxCell id="bRwFNGQKk4nsP9bw9-Bx-53" value="0" style="edgeLabel;html=1;align=center;verticalAlign=middle;resizable=0;points=[];rounded=0;" parent="1" vertex="1" connectable="0">
          <mxGeometry x="240.00000000000028" y="410" as="geometry">
            <mxPoint x="685" y="219" as="offset" />
          </mxGeometry>
        </mxCell>
        <mxCell id="bRwFNGQKk4nsP9bw9-Bx-56" style="edgeStyle=orthogonalEdgeStyle;rounded=0;orthogonalLoop=1;jettySize=auto;html=1;entryX=0.5;entryY=0;entryDx=0;entryDy=0;" parent="1" source="bRwFNGQKk4nsP9bw9-Bx-54" target="bRwFNGQKk4nsP9bw9-Bx-9" edge="1">
          <mxGeometry relative="1" as="geometry" />
        </mxCell>
        <mxCell id="bRwFNGQKk4nsP9bw9-Bx-62" value="1" style="edgeLabel;html=1;align=center;verticalAlign=middle;resizable=0;points=[];rounded=0;" parent="bRwFNGQKk4nsP9bw9-Bx-56" vertex="1" connectable="0">
          <mxGeometry x="-0.1981" relative="1" as="geometry">
            <mxPoint y="-10" as="offset" />
          </mxGeometry>
        </mxCell>
        <mxCell id="zSd1xjBv1JHaWPscScmx-1" style="edgeStyle=orthogonalEdgeStyle;rounded=0;orthogonalLoop=1;jettySize=auto;html=1;entryX=0.5;entryY=0;entryDx=0;entryDy=0;entryPerimeter=0;" edge="1" parent="1" source="bRwFNGQKk4nsP9bw9-Bx-54" target="bRwFNGQKk4nsP9bw9-Bx-57">
          <mxGeometry relative="1" as="geometry" />
        </mxCell>
        <mxCell id="zSd1xjBv1JHaWPscScmx-2" value="0" style="edgeLabel;html=1;align=center;verticalAlign=middle;resizable=0;points=[];" vertex="1" connectable="0" parent="zSd1xjBv1JHaWPscScmx-1">
          <mxGeometry x="0.0244" y="3" relative="1" as="geometry">
            <mxPoint x="-20" y="-7" as="offset" />
          </mxGeometry>
        </mxCell>
        <mxCell id="bRwFNGQKk4nsP9bw9-Bx-54" value="v==1" style="strokeWidth=2;html=1;shape=mxgraph.flowchart.decision;whiteSpace=wrap;rounded=0;" parent="1" vertex="1">
          <mxGeometry x="317.5" y="455" width="55" height="30" as="geometry" />
        </mxCell>
        <mxCell id="bRwFNGQKk4nsP9bw9-Bx-57" value="v==2" style="strokeWidth=2;html=1;shape=mxgraph.flowchart.decision;whiteSpace=wrap;rounded=0;" parent="1" vertex="1">
          <mxGeometry x="427.5" y="490" width="55" height="30" as="geometry" />
        </mxCell>
        <mxCell id="bRwFNGQKk4nsP9bw9-Bx-58" value="v==3" style="strokeWidth=2;html=1;shape=mxgraph.flowchart.decision;whiteSpace=wrap;rounded=0;" parent="1" vertex="1">
          <mxGeometry x="657.5" y="560" width="55" height="30" as="geometry" />
        </mxCell>
        <mxCell id="bRwFNGQKk4nsP9bw9-Bx-59" value="v==4" style="strokeWidth=2;html=1;shape=mxgraph.flowchart.decision;whiteSpace=wrap;rounded=0;" parent="1" vertex="1">
          <mxGeometry x="847.5" y="630" width="55" height="30" as="geometry" />
        </mxCell>
        <mxCell id="bRwFNGQKk4nsP9bw9-Bx-75" value="" style="edgeStyle=orthogonalEdgeStyle;rounded=0;orthogonalLoop=1;jettySize=auto;html=1;" parent="1" source="bRwFNGQKk4nsP9bw9-Bx-63" target="bRwFNGQKk4nsP9bw9-Bx-71" edge="1">
          <mxGeometry relative="1" as="geometry" />
        </mxCell>
        <mxCell id="tZnMn4wDyjgAwsPnRWPk-16" style="edgeStyle=orthogonalEdgeStyle;rounded=0;orthogonalLoop=1;jettySize=auto;html=1;entryX=0;entryY=0.5;entryDx=0;entryDy=0;strokeColor=default;strokeWidth=1;endArrow=none;endFill=0;" parent="1" source="bRwFNGQKk4nsP9bw9-Bx-63" target="tZnMn4wDyjgAwsPnRWPk-13" edge="1">
          <mxGeometry relative="1" as="geometry">
            <Array as="points">
              <mxPoint x="10" y="870" />
              <mxPoint x="10" y="1390" />
            </Array>
          </mxGeometry>
        </mxCell>
        <mxCell id="bRwFNGQKk4nsP9bw9-Bx-63" value="i=0, Intervals-i" style="strokeWidth=2;html=1;shape=mxgraph.flowchart.decision;whiteSpace=wrap;rounded=0;" parent="1" vertex="1">
          <mxGeometry x="80" y="850" width="100" height="40" as="geometry" />
        </mxCell>
        <mxCell id="bRwFNGQKk4nsP9bw9-Bx-76" style="edgeStyle=orthogonalEdgeStyle;rounded=0;orthogonalLoop=1;jettySize=auto;html=1;" parent="1" source="bRwFNGQKk4nsP9bw9-Bx-64" target="bRwFNGQKk4nsP9bw9-Bx-74" edge="1">
          <mxGeometry relative="1" as="geometry" />
        </mxCell>
        <mxCell id="bRwFNGQKk4nsP9bw9-Bx-64" value="i=0, Intervals-i" style="rounded=0;whiteSpace=wrap;html=1;" parent="1" vertex="1">
          <mxGeometry x="825" y="970" width="100" height="20" as="geometry" />
        </mxCell>
        <mxCell id="bRwFNGQKk4nsP9bw9-Bx-77" value="" style="edgeStyle=orthogonalEdgeStyle;rounded=0;orthogonalLoop=1;jettySize=auto;html=1;" parent="1" source="bRwFNGQKk4nsP9bw9-Bx-65" target="bRwFNGQKk4nsP9bw9-Bx-73" edge="1">
          <mxGeometry relative="1" as="geometry" />
        </mxCell>
        <mxCell id="tZnMn4wDyjgAwsPnRWPk-18" style="edgeStyle=orthogonalEdgeStyle;rounded=0;orthogonalLoop=1;jettySize=auto;html=1;entryX=1;entryY=0.5;entryDx=0;entryDy=0;strokeColor=default;strokeWidth=1;endArrow=none;endFill=0;" parent="1" source="bRwFNGQKk4nsP9bw9-Bx-65" target="tZnMn4wDyjgAwsPnRWPk-13" edge="1">
          <mxGeometry relative="1" as="geometry">
            <Array as="points">
              <mxPoint x="580" y="950" />
              <mxPoint x="580" y="1390" />
            </Array>
          </mxGeometry>
        </mxCell>
        <mxCell id="bRwFNGQKk4nsP9bw9-Bx-65" value="i=0, Intervals-i" style="strokeWidth=2;html=1;shape=mxgraph.flowchart.decision;whiteSpace=wrap;rounded=0;" parent="1" vertex="1">
          <mxGeometry x="635" y="930" width="100" height="40" as="geometry" />
        </mxCell>
        <mxCell id="bRwFNGQKk4nsP9bw9-Bx-79" value="" style="edgeStyle=orthogonalEdgeStyle;rounded=0;orthogonalLoop=1;jettySize=auto;html=1;" parent="1" source="bRwFNGQKk4nsP9bw9-Bx-66" target="bRwFNGQKk4nsP9bw9-Bx-72" edge="1">
          <mxGeometry relative="1" as="geometry" />
        </mxCell>
        <mxCell id="tZnMn4wDyjgAwsPnRWPk-17" style="edgeStyle=orthogonalEdgeStyle;rounded=0;orthogonalLoop=1;jettySize=auto;html=1;strokeColor=default;strokeWidth=1;endArrow=none;endFill=0;" parent="1" source="bRwFNGQKk4nsP9bw9-Bx-66" target="tZnMn4wDyjgAwsPnRWPk-13" edge="1">
          <mxGeometry relative="1" as="geometry">
            <Array as="points">
              <mxPoint x="300" y="880" />
              <mxPoint x="300" y="1390" />
            </Array>
          </mxGeometry>
        </mxCell>
        <mxCell id="bRwFNGQKk4nsP9bw9-Bx-66" value="i=0, Intervals&amp;gt;=i" style="strokeWidth=2;html=1;shape=mxgraph.flowchart.decision;whiteSpace=wrap;rounded=0;" parent="1" vertex="1">
          <mxGeometry x="402.5" y="860" width="105" height="40" as="geometry" />
        </mxCell>
        <mxCell id="tZnMn4wDyjgAwsPnRWPk-2" style="edgeStyle=orthogonalEdgeStyle;rounded=0;orthogonalLoop=1;jettySize=auto;html=1;" parent="1" source="bRwFNGQKk4nsP9bw9-Bx-71" target="tZnMn4wDyjgAwsPnRWPk-1" edge="1">
          <mxGeometry relative="1" as="geometry" />
        </mxCell>
        <mxCell id="bRwFNGQKk4nsP9bw9-Bx-71" value="x=left_boundary" style="rounded=0;whiteSpace=wrap;html=1;" parent="1" vertex="1">
          <mxGeometry x="85" y="960" width="90" height="20" as="geometry" />
        </mxCell>
        <mxCell id="tZnMn4wDyjgAwsPnRWPk-6" style="edgeStyle=orthogonalEdgeStyle;rounded=0;orthogonalLoop=1;jettySize=auto;html=1;" parent="1" source="bRwFNGQKk4nsP9bw9-Bx-72" target="tZnMn4wDyjgAwsPnRWPk-5" edge="1">
          <mxGeometry relative="1" as="geometry" />
        </mxCell>
        <mxCell id="bRwFNGQKk4nsP9bw9-Bx-72" value="x=left_boundary+h" style="rounded=0;whiteSpace=wrap;html=1;" parent="1" vertex="1">
          <mxGeometry x="395" y="960" width="120" height="20" as="geometry" />
        </mxCell>
        <mxCell id="tZnMn4wDyjgAwsPnRWPk-9" style="edgeStyle=orthogonalEdgeStyle;rounded=0;orthogonalLoop=1;jettySize=auto;html=1;entryX=0.5;entryY=0;entryDx=0;entryDy=0;" parent="1" source="bRwFNGQKk4nsP9bw9-Bx-73" target="tZnMn4wDyjgAwsPnRWPk-4" edge="1">
          <mxGeometry relative="1" as="geometry" />
        </mxCell>
        <mxCell id="bRwFNGQKk4nsP9bw9-Bx-73" value="x=left_boundary+h" style="rounded=0;whiteSpace=wrap;html=1;" parent="1" vertex="1">
          <mxGeometry x="625" y="1020" width="120" height="20" as="geometry" />
        </mxCell>
        <mxCell id="tZnMn4wDyjgAwsPnRWPk-10" style="edgeStyle=orthogonalEdgeStyle;rounded=0;orthogonalLoop=1;jettySize=auto;html=1;entryX=0.5;entryY=0;entryDx=0;entryDy=0;" parent="1" source="bRwFNGQKk4nsP9bw9-Bx-74" target="tZnMn4wDyjgAwsPnRWPk-3" edge="1">
          <mxGeometry relative="1" as="geometry" />
        </mxCell>
        <mxCell id="bRwFNGQKk4nsP9bw9-Bx-74" value="x=left_boundary+h*i" style="rounded=0;whiteSpace=wrap;html=1;" parent="1" vertex="1">
          <mxGeometry x="815" y="1010" width="120" height="20" as="geometry" />
        </mxCell>
        <mxCell id="tZnMn4wDyjgAwsPnRWPk-11" style="edgeStyle=orthogonalEdgeStyle;rounded=0;orthogonalLoop=1;jettySize=auto;html=1;entryX=1;entryY=0.5;entryDx=0;entryDy=0;entryPerimeter=0;strokeColor=default;endFill=0;strokeWidth=1;endArrow=none;" parent="1" source="tZnMn4wDyjgAwsPnRWPk-1" target="bRwFNGQKk4nsP9bw9-Bx-63" edge="1">
          <mxGeometry relative="1" as="geometry">
            <Array as="points">
              <mxPoint x="200" y="1020" />
              <mxPoint x="200" y="870" />
            </Array>
          </mxGeometry>
        </mxCell>
        <mxCell id="tZnMn4wDyjgAwsPnRWPk-1" value="S+=f(x)" style="rounded=0;whiteSpace=wrap;html=1;" parent="1" vertex="1">
          <mxGeometry x="110" y="1010" width="40" height="20" as="geometry" />
        </mxCell>
        <mxCell id="tZnMn4wDyjgAwsPnRWPk-28" style="edgeStyle=orthogonalEdgeStyle;rounded=0;orthogonalLoop=1;jettySize=auto;html=1;entryX=1;entryY=0.5;entryDx=0;entryDy=0;strokeColor=default;strokeWidth=1;endArrow=none;endFill=0;" parent="1" source="tZnMn4wDyjgAwsPnRWPk-3" target="tZnMn4wDyjgAwsPnRWPk-13" edge="1">
          <mxGeometry relative="1" as="geometry">
            <Array as="points">
              <mxPoint x="580" y="1150" />
              <mxPoint x="580" y="1390" />
            </Array>
          </mxGeometry>
        </mxCell>
        <mxCell id="tZnMn4wDyjgAwsPnRWPk-3" value="S=a+h*i" style="rounded=0;whiteSpace=wrap;html=1;" parent="1" vertex="1">
          <mxGeometry x="852.5" y="1060" width="45" height="20" as="geometry" />
        </mxCell>
        <mxCell id="tZnMn4wDyjgAwsPnRWPk-25" style="edgeStyle=orthogonalEdgeStyle;rounded=0;orthogonalLoop=1;jettySize=auto;html=1;entryX=1;entryY=0.5;entryDx=0;entryDy=0;entryPerimeter=0;strokeColor=default;strokeWidth=1;endArrow=none;endFill=0;" parent="1" source="tZnMn4wDyjgAwsPnRWPk-4" target="bRwFNGQKk4nsP9bw9-Bx-65" edge="1">
          <mxGeometry relative="1" as="geometry">
            <Array as="points">
              <mxPoint x="755" y="1090" />
              <mxPoint x="755" y="950" />
            </Array>
          </mxGeometry>
        </mxCell>
        <mxCell id="tZnMn4wDyjgAwsPnRWPk-4" value="S+=f(x)+f(h+x)/2" style="rounded=0;whiteSpace=wrap;html=1;" parent="1" vertex="1">
          <mxGeometry x="637.5" y="1080" width="95" height="20" as="geometry" />
        </mxCell>
        <mxCell id="tZnMn4wDyjgAwsPnRWPk-24" style="edgeStyle=orthogonalEdgeStyle;rounded=0;orthogonalLoop=1;jettySize=auto;html=1;entryX=1;entryY=0.5;entryDx=0;entryDy=0;entryPerimeter=0;strokeColor=default;strokeWidth=1;endArrow=none;endFill=0;" parent="1" source="tZnMn4wDyjgAwsPnRWPk-5" target="bRwFNGQKk4nsP9bw9-Bx-66" edge="1">
          <mxGeometry relative="1" as="geometry">
            <Array as="points">
              <mxPoint x="528" y="1040" />
              <mxPoint x="528" y="880" />
            </Array>
          </mxGeometry>
        </mxCell>
        <mxCell id="tZnMn4wDyjgAwsPnRWPk-5" value="S+=f(x)" style="rounded=0;whiteSpace=wrap;html=1;" parent="1" vertex="1">
          <mxGeometry x="435" y="1030" width="40" height="20" as="geometry" />
        </mxCell>
        <mxCell id="tZnMn4wDyjgAwsPnRWPk-15" style="edgeStyle=orthogonalEdgeStyle;rounded=0;orthogonalLoop=1;jettySize=auto;html=1;entryX=0.5;entryY=0;entryDx=0;entryDy=0;entryPerimeter=0;strokeColor=default;strokeWidth=1;endArrow=none;endFill=0;" parent="1" source="tZnMn4wDyjgAwsPnRWPk-13" target="tZnMn4wDyjgAwsPnRWPk-14" edge="1">
          <mxGeometry relative="1" as="geometry" />
        </mxCell>
        <mxCell id="tZnMn4wDyjgAwsPnRWPk-13" value="Result" style="shape=parallelogram;html=1;strokeWidth=2;perimeter=parallelogramPerimeter;whiteSpace=wrap;rounded=0;arcSize=12;size=0.23;" parent="1" vertex="1">
          <mxGeometry x="370" y="1360" width="100" height="60" as="geometry" />
        </mxCell>
        <mxCell id="tZnMn4wDyjgAwsPnRWPk-14" value="End" style="strokeWidth=2;html=1;shape=mxgraph.flowchart.terminator;whiteSpace=wrap;rounded=0;" parent="1" vertex="1">
          <mxGeometry x="370" y="1520" width="100" height="60" as="geometry" />
        </mxCell>
      </root>
    </mxGraphModel>
  </diagram>
</mxfile>
